<?xml version="1.0" standalone="no"?><!DOCTYPE svg PUBLIC "-//W3C//DTD SVG 1.1//EN" "http://www.w3.org/Graphics/SVG/1.1/DTD/svg11.dtd"><svg t="1565683742816" class="icon" viewBox="0 0 1024 1024" version="1.1" xmlns="http://www.w3.org/2000/svg" p-id="1383" xmlns:xlink="http://www.w3.org/1999/xlink" width="200" height="200"><defs><style type="text/css"></style></defs><path d="M424.207118 103.734276v282.808559a70.670611 70.670611 0 0 1-70.705006 70.705006H70.693552A70.670611 70.670611 0 0 1 0.000011 386.542835V103.734276a70.659146 70.659146 0 0 1 70.693541-70.693541h282.80856A70.670611 70.670611 0 0 1 424.207118 103.734276zM1005.164482 199.868778L824.142698 18.835529a63.860367 63.860367 0 0 0-90.573949 0l-181.033249 181.033249a63.860367 63.860367 0 0 0 0 90.57395l181.033249 181.033249a63.860367 63.860367 0 0 0 90.573949 0l181.033249-181.033249a63.860367 63.860367 0 0 0-0.011465-90.57395zM778.855724 412.958326L611.087546 245.144288 778.855724 77.33025l167.825503 167.814038zM424.207118 670.4979v282.808559a70.670611 70.670611 0 0 1-70.705006 70.693541H70.693552A70.659146 70.659146 0 0 1 0.000011 953.306459V670.4979a70.670611 70.670611 0 0 1 70.693541-70.705006h282.80856A70.670611 70.670611 0 0 1 424.207118 670.4979zM990.959277 670.4979v282.808559a70.659146 70.659146 0 0 1-70.693541 70.693541H637.457176a70.670611 70.670611 0 0 1-70.705006-70.693541V670.4979A70.670611 70.670611 0 0 1 637.457176 599.792894h282.80856a70.670611 70.670611 0 0 1 70.693541 70.705006z" p-id="1384" fill="#d81e06"></path></svg>