<?xml version="1.0" standalone="no"?><!DOCTYPE svg PUBLIC "-//W3C//DTD SVG 1.1//EN" "http://www.w3.org/Graphics/SVG/1.1/DTD/svg11.dtd"><svg t="1565688857434" class="icon" viewBox="0 0 1025 1024" version="1.1" xmlns="http://www.w3.org/2000/svg" p-id="1035" xmlns:xlink="http://www.w3.org/1999/xlink" width="200.1953125" height="200"><defs><style type="text/css"></style></defs><path d="M1025.210858 981.466861c0-208.62794-147.558891-385.797187-351.418122-448.270972 79.232039-52.07381 131.724805-141.175968 131.724805-242.390893C805.517541 130.455614 674.125436 0 512.605441 0S219.693341 130.455614 219.693341 290.804996c0 101.202603 52.492766 190.304761 131.724806 242.390893C147.571238 595.669674 0.000025 772.838921 0.000025 981.466861a36.017924 36.017924 0 0 0 3.290039 15.082429Q2.464474 1010.165371 2.464474 1023.978609h1022.746384q0-16.745932-1.232225-33.19613a36.21508 36.21508 0 0 0 1.232225-9.315618z" p-id="1036"></path></svg>